<svg xmlns="http://www.w3.org/2000/svg" viewBox="0 0 64 64" width="64" height="64" role="img" aria-label="Whale Watch LHR">
  <title>Whale Watch LHR</title>
  <defs>
    <linearGradient id="ww-bg" x1="0" y1="0" x2="0" y2="1">
      <stop offset="0" stop-color="#141d2e" />
      <stop offset="1" stop-color="#05070c" />
    </linearGradient>
    <linearGradient id="ww-wing" x1="0.1" y1="0" x2="0.9" y2="1">
      <stop offset="0" stop-color="#5cf3dd" />
      <stop offset="1" stop-color="#1fa895" />
    </linearGradient>
  </defs>
  <rect width="64" height="64" rx="14" fill="url(#ww-bg)" />
  <path
    d="M32 6c2.1 0 3.4 2.6 3.6 6.4l.5 10.2 22.4 15.3c.7.5 1.1 1.3 1.1 2.1v3.3c0 .8-.8 1.4-1.6 1.1L36.4 37l-.4 8.6 6.4 4.2c.5.4.8 1 .8 1.6v2.3c0 .7-.7 1.2-1.4 1L32 52.2l-9.8 2.5c-.7.2-1.4-.3-1.4-1v-2.3c0-.6.3-1.2.8-1.6l6.4-4.2-.4-8.6-21.6 7.4c-.8.3-1.6-.3-1.6-1.1v-3.3c0-.8.4-1.6 1.1-2.1l22.4-15.3.5-10.2C28.6 8.6 29.9 6 32 6z"
    fill="url(#ww-wing)"
  />
</svg>
